<mxfile host="app.diagrams.net" modified="2023-06-14T17:06:50.195Z" agent="Mozilla/5.0 (Windows NT 10.0; Win64; x64) AppleWebKit/537.36 (KHTML, like Gecko) Chrome/114.0.0.0 Safari/537.36" version="21.3.8" etag="zSh_Bw_GHIXgu70y2L_m" type="github">
  <diagram name="第 1 页" id="hmF60nJ2wSoAK4cPR7RL">
    <mxGraphModel>
      <root>
        <mxCell id="0" />
        <mxCell id="1" parent="0" />
      </root>
    </mxGraphModel>
  </diagram>
</mxfile>
